<svg width="183" height="359" viewBox="0 0 183 359" fill="none" xmlns="http://www.w3.org/2000/svg">
<mask id="mask0" mask-type="alpha" maskUnits="userSpaceOnUse" x="-111" y="12" width="283" height="336">
<path d="M171.383 92.2336L-13.7373 11.9999L-111 266.888L74.1201 347.122L171.383 92.2336Z" fill="white"/>
</mask>
<g mask="url(#mask0)">
<path fill-rule="evenodd" clip-rule="evenodd" d="M-67.2286 291.608C-94.9552 252.343 -87.0004 199.303 -70.9713 154.592C-68.2951 147.128 -66.5096 138.917 -60.9968 133.424C-55.4848 127.936 -46.1484 126.041 -40.8216 131.343C-36.4034 135.74 -36.2096 143.023 -35 149.397C-33.3946 157.877 -29.4647 165.763 -23.8117 171.853C-20.0987 175.855 -15.001 179.248 -9.69403 178.122C-2.41769 176.577 1.20494 167.83 3.58425 160.308C8.0169 146.296 12.4487 132.286 16.8773 118.275C19.2561 110.761 21.7062 103.092 26.2016 96.7047C30.6938 90.3157 37.6789 85.3227 45.0391 85.5654C52.3989 85.809 59.371 92.6968 58.4182 100.514C58.023 103.767 56.4122 106.744 55.6043 109.924C54.7944 113.105 55.0482 117.005 57.5508 118.801C60.0845 120.624 63.5931 119.44 66.4142 117.947C76.1411 112.806 84.235 104.698 91.9861 96.5351C99.7398 88.3728 107.431 79.9362 116.708 73.8792C125.982 67.826 137.238 64.3325 147.543 67.0994C157.846 69.8682 166.476 80.0963 165.623 91.4969C164.772 102.932 155.504 111.724 146.422 118.176C132.952 127.75 118.238 135.282 102.896 140.456C100.129 141.393 97.1315 142.401 95.3816 144.894C92.236 149.387 95.0912 155.842 99.2061 159.037C103.867 162.66 109.761 163.983 115.041 166.512C120.323 169.038 125.451 173.612 125.748 179.835C126.163 188.468 117.536 194.492 109.902 197.774C94.6112 204.348 78.3512 208.14 62.0489 208.942C56.2062 209.229 50.1695 209.175 44.7313 211.655C39.2924 214.135 34.5907 220.034 35.415 226.162C36.2373 232.3 42.1847 236.159 47.9683 236.899C53.7494 237.644 59.6342 236.133 65.4856 235.786C76.44 235.131 88.7371 240.028 92.0715 251.014C94.2647 258.233 91.9931 266.513 87.6737 272.802C83.3564 279.097 77.2283 283.711 70.9882 287.774C49.1842 301.969 24.2464 310.93 -0.929274 311.707C-26.1015 312.485 -47.6751 307.769 -67.2283 291.608" fill="#00CCCC"/>
<path fill-rule="evenodd" clip-rule="evenodd" d="M-80.5488 366.005C-78.3315 355.373 -76.2285 349.668 -69.2879 331.624C-62.3901 313.576 -52.4385 292.872 -39.4829 271.311C-26.5633 249.719 -10.7052 227.311 6.57234 204.489C10.9093 198.805 15.1933 193.183 19.4177 187.646C23.6448 182.128 27.8376 176.656 32.222 171.578C40.9517 161.381 50.0082 152.303 58.8354 143.983C67.6607 135.652 76.2949 128.1 84.4083 121.105C92.542 114.129 100.223 107.78 107.432 102.327C121.832 91.3544 134.297 84.0399 143.026 79.4083C147.388 77.0762 150.819 75.3913 153.16 74.2852C154.282 73.7636 155.159 73.3526 155.824 73.0438C156.427 72.7722 156.739 72.645 156.749 72.6687C156.758 72.6952 156.461 72.8685 155.872 73.1837C155.223 73.528 154.355 73.9821 153.256 74.5604C150.949 75.7594 147.553 77.5256 143.228 79.9343C134.575 84.7248 122.22 92.1572 107.928 103.203C100.77 108.698 93.1367 115.081 85.0442 122.093C76.9639 129.127 68.3672 136.701 59.5846 145.035C50.8009 153.366 41.7932 162.431 33.1251 172.586C28.7706 177.645 24.6227 183.073 20.3866 188.607C16.1685 194.144 11.8875 199.765 7.55277 205.448C-9.708 228.248 -25.5561 250.575 -38.4955 272.064C-51.4635 293.518 -61.4562 314.087 -68.4373 332.018C-75.4628 349.948 -77.6856 355.551 -80.0481 366.122" fill="#263238"/>
<path fill-rule="evenodd" clip-rule="evenodd" d="M27.7488 169.068C27.6739 169.066 27.7523 167.787 27.9528 165.479C28.1459 163.173 28.5075 159.839 28.9983 155.722C29.9735 147.493 31.6046 136.152 33.4357 123.656C35.2691 111.152 36.7779 99.8275 37.6598 91.613C38.1069 87.5053 38.4471 84.1787 38.6607 81.8782C38.8813 79.5774 39.0423 78.302 39.1184 78.2997C39.195 78.2985 39.1805 79.5708 39.0913 81.8737C39.012 84.1793 38.7899 87.522 38.4377 91.649C37.7546 99.9044 36.3633 111.289 34.5278 123.807C32.6967 136.135 31.0386 147.287 29.7738 155.811C29.22 159.663 28.7542 162.911 28.3823 165.516C28.0475 167.807 27.8275 169.074 27.7488 169.068" fill="#263238"/>
<path fill-rule="evenodd" clip-rule="evenodd" d="M135.064 183.671C135.036 183.764 133.669 183.495 131.233 182.93C128.794 182.381 125.27 181.566 120.878 180.698C112.113 178.9 99.91 176.842 86.322 175.169C72.7314 173.518 60.3496 172.556 51.368 172.119C46.8757 171.868 43.2342 171.764 40.7154 171.677C38.1983 171.6 36.8068 171.512 36.8064 171.411C36.8111 171.314 38.2099 171.217 40.741 171.123C43.2684 171.04 46.9312 170.993 51.4443 171.113C60.4712 171.293 72.9132 172.101 86.5471 173.754C100.172 175.434 112.394 177.657 121.122 179.717C125.495 180.712 128.99 181.677 131.39 182.397C133.785 183.127 135.094 183.575 135.064 183.671V183.671ZM96.3843 260.672C96.3791 260.723 95.8912 260.77 94.9664 260.812C93.8798 260.843 92.5431 260.879 90.9246 260.929L76.0705 261.196C63.5283 261.429 46.1974 261.955 27.0499 262.562C7.89026 263.173 -9.45254 263.531 -21.9861 263.492C-28.255 263.473 -33.3219 263.407 -36.8186 263.286C-38.4347 263.218 -39.7644 263.161 -40.8462 263.121C-41.7624 263.066 -42.2455 263.011 -42.2398 262.958C-42.2364 262.906 -41.7502 262.862 -40.8236 262.817L-36.7827 262.703C-33.0606 262.633 -28.0421 262.546 -21.9313 262.434C-9.38818 262.203 7.94354 261.676 27.0999 261.066C46.2495 260.456 63.5908 260.097 76.1288 260.137C82.3959 260.153 87.4625 260.223 90.9641 260.344C92.5774 260.411 93.9053 260.464 94.9889 260.508C95.907 260.564 96.3841 260.619 96.3843 260.672" fill="#263238"/>
</g>
</svg>
