<svg width="155" height="253" viewBox="0 0 155 253" fill="none" xmlns="http://www.w3.org/2000/svg">
<mask id="mask0" mask-type="alpha" maskUnits="userSpaceOnUse" x="28" y="0" width="161" height="195">
<path d="M28.3074 0H188.001V194.789H28.3074V0Z" fill="white"/>
</mask>
<g mask="url(#mask0)">
<path fill-rule="evenodd" clip-rule="evenodd" d="M154.408 190.425C183.454 170.495 189.471 134.274 187.724 101.831C187.433 96.414 187.959 90.6941 185.153 85.9812C182.345 81.273 175.939 78.1259 170.859 80.4918C166.646 82.4559 164.879 87.1653 162.572 91.0747C159.505 96.2769 154.871 100.615 149.376 103.429C145.766 105.279 141.281 106.446 137.65 104.625C132.672 102.127 131.976 95.6801 131.914 90.2876C131.797 80.2425 131.682 70.1973 131.57 60.1521C131.507 54.7632 131.426 49.2608 129.564 44.1744C127.703 39.0869 123.707 34.4011 118.27 33.0515C112.833 31.7019 106.195 34.7651 105.147 40.0595C104.711 42.2623 105.224 44.5337 105.106 46.7732C104.988 49.0126 103.933 51.505 101.701 52.1645C99.4402 52.8334 97.1381 51.3431 95.4084 49.7914C89.4394 44.4462 85.3288 37.5009 81.4807 30.5898C77.6314 23.6788 73.8883 16.6011 68.4529 10.7501C63.0213 4.90259 55.5676 0.318458 47.4115 0.0123759C39.2566 -0.291342 30.6618 4.61069 28.7409 12.2202C26.8124 19.8533 31.6279 27.4853 36.832 33.5537C44.5494 42.5566 53.6304 50.4828 63.6987 57.0003C65.5134 58.1786 67.4818 59.449 68.2042 61.4344C69.5028 65.0081 65.9733 68.6338 62.2515 69.8747C58.0334 71.2822 53.428 70.9383 48.9999 71.5055C44.5719 72.0728 39.8015 74.0038 38.1943 78.0018C35.9646 83.5479 40.9301 89.2429 45.7817 92.9478C55.5014 100.366 66.5495 106.171 78.2938 110.032C82.5031 111.416 86.9298 112.617 90.3542 115.35C93.7799 118.08 95.9033 122.889 93.9324 126.718C91.9615 130.553 86.7499 131.851 82.3543 131.15C77.9588 130.452 73.992 128.261 69.789 126.837C61.9215 124.166 51.8345 124.839 46.9428 131.321C43.7271 135.581 43.5421 141.446 45.2968 146.433C47.0503 151.422 50.5034 155.686 54.1616 159.615C66.9432 173.339 83.1842 184.29 101.426 189.953C119.666 195.618 136.499 196.96 154.408 190.425" fill="#F3AF47"/>
<path fill-rule="evenodd" clip-rule="evenodd" d="M157.203 239.662C157.748 232.427 157.343 228.359 155.842 215.437C154.375 202.52 151.134 187.29 145.781 170.906C140.459 154.509 133.068 136.995 124.68 118.931C122.564 114.425 120.476 109.97 118.417 105.579C116.35 101.202 114.3 96.86 112.022 92.7321C107.502 84.456 102.498 76.8288 97.5091 69.731C92.5237 62.6273 87.5208 56.0578 82.7966 49.9515C78.0561 43.8524 73.5256 38.246 69.1701 33.3049C60.4841 23.3874 52.5054 16.1951 46.8139 11.4715C43.9743 9.10084 41.7097 7.33053 40.155 6.15111L38.3815 4.81806C37.9778 4.52261 37.7666 4.37843 37.7541 4.39143C37.7416 4.40679 37.9316 4.57697 38.3153 4.89842C38.739 5.24822 39.3064 5.71385 40.0225 6.30592C41.5322 7.53852 43.7544 9.35374 46.5489 11.7658C52.148 16.5756 60.0179 23.8199 68.6052 33.7635C72.9157 38.7199 77.4 44.3392 82.1029 50.4526C86.7934 56.5778 91.7638 63.1521 96.7155 70.2498C101.668 77.3453 106.639 84.9548 111.119 93.1918C113.38 97.302 115.405 101.606 117.475 105.996C119.529 110.384 121.615 114.839 123.728 119.342C132.11 137.39 139.511 154.85 144.867 171.185C150.254 187.505 153.553 202.656 155.109 215.516C156.699 228.382 157.218 232.408 156.797 239.634" fill="#263238"/>
<path fill-rule="evenodd" clip-rule="evenodd" d="M110.222 90.7574C110.283 90.7692 110.437 89.9443 110.666 88.4435C110.902 86.9473 111.176 84.7681 111.479 82.0713C112.09 76.6812 112.704 69.204 113.35 60.9587C113.998 52.7075 114.705 45.2611 115.387 39.8958C115.725 37.2131 116.016 35.0422 116.233 33.5461C116.446 32.0476 116.533 31.2097 116.471 31.1955C116.411 31.1813 116.209 31.992 115.89 33.4692C115.564 34.9465 115.176 37.1056 114.76 39.7859C113.91 45.1441 113.098 52.6082 112.452 60.8677C111.832 69.0067 111.273 76.3692 110.843 81.9956C110.636 84.5365 110.459 86.6779 110.317 88.395C110.197 89.9053 110.159 90.7468 110.222 90.7574Z" fill="#263238"/>
<path fill-rule="evenodd" clip-rule="evenodd" d="M37.754 78.9495C37.7528 79.0181 38.7826 79.115 40.6398 79.2331C42.4945 79.3631 45.1803 79.5345 48.4923 79.8477C55.1187 80.4267 64.2397 81.5329 74.2517 83.1791C84.2613 84.8407 93.2536 86.7174 99.715 88.2537C102.955 89.0006 105.558 89.6718 107.363 90.1268C109.162 90.5877 110.168 90.8123 110.192 90.7449C110.212 90.6787 109.243 90.3289 107.473 89.751C105.702 89.1802 103.121 88.4038 99.8963 87.5647C93.4611 85.8464 84.4613 83.8539 74.4217 82.1852C64.3821 80.5367 55.2099 79.538 48.5485 79.1398C45.2203 78.9152 42.5195 78.8502 40.6536 78.8443C38.7864 78.8455 37.7553 78.8798 37.754 78.9495V78.9495ZM144.843 168.187C144.878 168.201 145.038 167.905 145.321 167.332L146.507 164.798C147.525 162.591 148.914 159.364 150.574 155.355C153.904 147.337 158.139 136.122 162.641 123.688C167.148 111.248 171.269 100.009 174.419 91.9373C175.964 88.0103 177.235 84.784 178.181 82.3838L179.188 79.7791C179.407 79.18 179.507 78.8585 179.476 78.8443C179.439 78.8325 179.277 79.1256 178.996 79.7011L177.812 82.2337C176.792 84.4365 175.404 87.6675 173.742 91.6761C170.413 99.6922 166.179 110.907 161.674 123.348C157.171 135.785 153.047 147.023 149.898 155.097C148.352 159.018 147.082 162.25 146.139 164.645C145.734 165.688 145.404 166.548 145.13 167.252C144.91 167.852 144.81 168.172 144.843 168.187" fill="#263238"/>
<path fill-rule="evenodd" clip-rule="evenodd" d="M47.2026 138.417C47.1938 138.453 47.5275 138.583 48.1736 138.8C48.936 139.042 49.8734 139.339 51.0094 139.702L61.4652 142.906C70.2937 145.615 82.4429 149.498 95.8619 153.803C109.286 158.114 121.485 161.886 130.369 164.412C134.813 165.676 138.417 166.663 140.921 167.294C142.082 167.578 143.035 167.811 143.811 168.003C144.474 168.153 144.827 168.216 144.836 168.178C144.846 168.143 144.511 168.014 143.866 167.795L141.032 166.896L130.577 163.692C121.749 160.982 109.597 157.1 96.1744 152.791C82.7554 148.483 70.5586 144.71 61.6714 142.185C57.2296 140.919 53.6252 139.933 51.1182 139.301L48.2286 138.592C47.5662 138.443 47.2138 138.382 47.2026 138.417" fill="#263238"/>
</g>
<mask id="mask1" mask-type="alpha" maskUnits="userSpaceOnUse" x="0" y="117" width="179" height="172">
<path d="M81.3351 117.532L6.72399e-05 183.815L96.9522 288.21L178.287 221.927L81.3351 117.532Z" fill="white"/>
</mask>
<g mask="url(#mask1)">
<path fill-rule="evenodd" clip-rule="evenodd" d="M161.156 230.131C163.717 207.194 146.869 185.657 128.498 169.442C125.433 166.738 122.576 163.517 118.736 162.261C114.894 161.009 110.246 162.122 109.194 165.549C108.317 168.39 110.056 171.615 111.114 174.655C112.521 178.697 112.74 182.962 111.737 186.8C111.08 189.322 109.649 191.866 106.994 192.476C103.353 193.315 99.5416 190.244 96.5954 187.453C91.1003 182.246 85.6069 177.044 80.118 171.838C77.1708 169.048 74.1528 166.203 70.5436 164.346C66.9336 162.489 62.5596 161.757 59.3288 163.393C56.0998 165.032 54.7074 169.494 57.0913 172.714C58.0851 174.054 59.5492 175.022 60.7088 176.244C61.8675 177.465 62.7319 179.223 62.0606 180.53C61.3858 181.853 59.5197 182.066 57.8853 181.999C52.246 181.775 46.5957 179.913 41.0867 177.958C35.5724 176 30.0197 173.911 24.3556 173.192C18.689 172.474 12.7819 173.292 8.86784 176.642C4.95293 179.999 3.65722 186.263 6.89352 191.071C10.1412 195.893 16.489 197.809 22.1668 198.743C30.5871 200.126 39.0554 200.36 47.2141 199.431C48.6858 199.265 50.2758 199.082 51.6849 199.811C54.2177 201.119 54.5594 204.534 53.5205 206.788C52.3428 209.341 50.0363 211.146 48.3113 213.35C46.5802 215.552 45.4342 218.617 46.8616 221.403C48.8398 225.264 54.2048 226.104 58.4433 225.949C66.9254 225.642 75.1483 223.921 82.6384 220.879C85.3225 219.79 88.006 218.51 91.0594 218.462C94.1146 218.416 97.6951 220.016 98.8605 222.866C100.032 225.721 98.341 228.647 95.9394 230.174C93.5396 231.704 90.532 232.264 87.8269 233.332C82.7657 235.324 78.4932 240.021 79.7532 245.518C80.5827 249.133 83.6731 252.279 87.1815 254.131C90.6864 255.985 94.5853 256.726 98.3918 257.207C111.698 258.876 125.095 257.608 136.548 252.711C148 247.815 156.462 241.264 161.156 230.131" fill="#E8505B"/>
</g>
<mask id="mask2" mask-type="alpha" maskUnits="userSpaceOnUse" x="0" y="117" width="179" height="172">
<path d="M81.3351 117.532L6.72399e-05 183.815L96.9522 288.21L178.287 221.927L81.3351 117.532Z" fill="white"/>
</mask>
<g mask="url(#mask2)">
<path fill-rule="evenodd" clip-rule="evenodd" d="M161.156 230.131C163.717 207.194 146.869 185.657 128.498 169.442C125.433 166.738 122.576 163.517 118.736 162.261C114.894 161.009 110.246 162.122 109.194 165.549C108.317 168.39 110.056 171.615 111.114 174.655C112.521 178.697 112.74 182.962 111.737 186.8C111.08 189.322 109.649 191.866 106.994 192.476C103.353 193.315 99.5416 190.244 96.5954 187.453C91.1003 182.246 85.6069 177.044 80.118 171.838C77.1708 169.048 74.1528 166.203 70.5436 164.346C66.9336 162.489 62.5596 161.757 59.3288 163.393C56.0998 165.032 54.7074 169.494 57.0913 172.714C58.0851 174.054 59.5492 175.022 60.7088 176.244C61.8675 177.465 62.7319 179.223 62.0606 180.53C61.3858 181.853 59.5197 182.066 57.8853 181.999C52.246 181.775 46.5957 179.913 41.0867 177.958C35.5724 176 30.0197 173.911 24.3556 173.192C18.689 172.474 12.7819 173.292 8.86784 176.642C4.95293 179.999 3.65722 186.263 6.89352 191.071C10.1412 195.893 16.489 197.809 22.1668 198.743C30.5871 200.126 39.0554 200.36 47.2141 199.431C48.6858 199.265 50.2758 199.082 51.6849 199.811C54.2177 201.119 54.5594 204.534 53.5205 206.788C52.3428 209.341 50.0363 211.146 48.3113 213.35C46.5802 215.552 45.4342 218.617 46.8616 221.403C48.8398 225.264 54.2048 226.104 58.4433 225.949C66.9254 225.642 75.1483 223.921 82.6384 220.879C85.3225 219.79 88.006 218.51 91.0594 218.462C94.1146 218.416 97.6951 220.016 98.8605 222.866C100.032 225.721 98.341 228.647 95.9394 230.174C93.5396 231.704 90.532 232.264 87.8269 233.332C82.7657 235.324 78.4932 240.021 79.7532 245.518C80.5827 249.133 83.6731 252.279 87.1815 254.131C90.6864 255.985 94.5853 256.726 98.3918 257.207C111.698 258.876 125.095 257.608 136.548 252.711C148 247.815 156.462 241.264 161.156 230.131" fill="#F8CD99"/>
<mask id="mask3" mask-type="alpha" maskUnits="userSpaceOnUse" x="4" y="132" width="190" height="187">
<path d="M69.2405 132.124L4.59775 184.86L128.585 318.53L193.228 265.794L69.2405 132.124Z" fill="white"/>
</mask>
<g mask="url(#mask3)">
<path fill-rule="evenodd" clip-rule="evenodd" d="M4.59763 184.86C4.60193 184.873 4.77959 184.881 5.12025 184.884C5.50144 184.886 6.0051 184.885 6.64674 184.891C7.9861 184.888 9.95934 184.884 12.5112 184.948C17.6098 185.065 25.0376 185.476 34.2326 186.985C38.8279 187.721 43.8577 188.729 49.2505 189.902C54.6424 191.084 60.4016 192.38 66.4348 193.957C72.4654 195.533 78.7788 197.364 85.2055 199.73C88.4224 200.9 91.6382 202.27 94.9213 203.665C98.1983 205.067 101.521 206.49 104.883 207.925C118.319 213.72 130.998 219.624 142.152 225.812C153.311 231.981 162.907 238.428 170.486 244.432C178.086 250.422 183.673 255.908 187.348 259.832C189.176 261.803 190.569 263.357 191.475 264.437L192.53 265.651C192.771 265.922 192.9 266.058 192.908 266.054C192.917 266.047 192.81 265.899 192.584 265.613L191.585 264.362C190.71 263.254 189.349 261.674 187.543 259.673C183.921 255.694 178.363 250.136 170.773 244.078C163.203 238.012 153.595 231.494 142.415 225.278C131.243 219.043 118.54 213.106 105.092 207.309C101.728 205.87 98.4023 204.45 95.1235 203.049C91.8491 201.659 88.6022 200.28 85.369 199.108C78.9 196.74 72.5616 194.911 66.5137 193.349C60.4641 191.788 54.6945 190.506 49.294 189.347C43.8918 188.2 38.849 187.219 34.2399 186.506C25.0155 185.055 17.5687 184.717 12.4743 184.683C9.92329 184.659 7.95261 184.703 6.6227 184.752L5.10908 184.817C4.76927 184.833 4.59591 184.847 4.59677 184.859" fill="#263238"/>
</g>
<path fill-rule="evenodd" clip-rule="evenodd" d="M87.3882 198.339C87.4491 198.296 87.113 197.736 86.4512 196.759C85.7974 195.778 84.7817 194.406 83.4877 192.741C80.9148 189.404 77.1275 184.969 72.9192 180.101C68.71 175.232 65.0268 170.736 62.5368 167.35C61.2817 165.667 60.2863 164.288 59.6175 163.319C58.9415 162.358 58.5349 161.846 58.4678 161.889C58.406 161.931 58.6856 162.524 59.2539 163.564C59.8133 164.607 60.7134 166.062 61.8873 167.813C64.2228 171.329 67.8212 175.922 72.0339 180.796C76.2026 185.582 79.9769 189.912 82.8584 193.223C84.142 194.731 85.2293 196 86.0991 197.02C86.8721 197.912 87.3264 198.386 87.3882 198.339V198.339ZM49.9128 223.73C49.9393 223.753 50.4441 223.368 51.3303 222.651C52.2201 221.939 53.5035 220.902 55.1266 219.661C58.3509 217.16 62.9173 213.827 68.0915 210.329C73.2763 206.839 78.0804 203.843 81.6092 201.757C83.3688 200.703 84.8088 199.883 85.8033 199.311C86.8004 198.743 87.3431 198.411 87.3282 198.378C87.3106 198.346 86.7345 198.615 85.7074 199.129C84.6822 199.645 83.2096 200.417 81.421 201.431C77.8341 203.441 72.9798 206.398 67.7809 209.898C62.5908 213.407 58.0463 216.797 54.8757 219.381C53.2789 220.66 52.029 221.742 51.1842 222.502C50.3402 223.268 49.8873 223.702 49.9128 223.73V223.73ZM145.077 222.259C145.1 222.252 145.018 222.026 144.842 221.606L144.039 219.774C143.333 218.185 142.252 215.904 140.879 213.099C138.137 207.486 134.107 199.82 129.545 191.404C124.982 182.987 120.886 175.357 118.032 169.795L114.667 163.198C114.3 162.48 113.993 161.893 113.745 161.405C113.523 160.998 113.401 160.79 113.376 160.795C113.354 160.805 113.436 161.029 113.613 161.45C113.827 161.945 114.094 162.549 114.414 163.281C115.12 164.87 116.201 167.15 117.573 169.956C120.316 175.569 124.345 183.236 128.909 191.654C133.469 200.068 137.566 207.697 140.422 213.261C141.803 215.972 142.942 218.2 143.784 219.856C144.155 220.572 144.457 221.164 144.71 221.649C144.931 222.055 145.055 222.266 145.077 222.259" fill="#263238"/>
<path fill-rule="evenodd" clip-rule="evenodd" d="M80.8141 248.969C80.8297 248.991 81.0614 248.906 81.4891 248.728L83.3469 247.906C85.0466 247.134 87.3414 246.091 90.13 244.82C95.8619 242.216 103.827 238.713 112.639 234.855C121.455 230.995 129.387 227.413 135.045 224.687C137.876 223.323 140.152 222.198 141.704 221.388C142.416 221.008 143.004 220.698 143.481 220.444C143.884 220.221 144.09 220.09 144.075 220.069C144.059 220.047 143.828 220.131 143.397 220.31C142.9 220.531 142.286 220.804 141.541 221.133L134.757 224.215C129.031 226.822 121.061 230.326 112.245 234.186C103.434 238.043 95.5024 241.625 89.843 244.35C87.011 245.713 84.7364 246.839 83.1846 247.649C82.4736 248.029 81.8849 248.34 81.4056 248.594C81.0045 248.817 80.7994 248.945 80.8141 248.969" fill="#263238"/>
</g>
</svg>
