<svg width="149" height="564" viewBox="0 0 149 564" fill="none" xmlns="http://www.w3.org/2000/svg">
<path d="M109.5 431.734C81.3001 462.737 35.7001 434.487 10.3001 402.761C5.80014 397.256 2.70017 389.867 1.40017 381.61C-4.39983 341.771 39.0001 332.064 40.3001 296.282C40.9001 280.636 32.8001 267.743 26.8001 254.704C13.2001 225.151 9.30016 187.63 12.2002 152.282C15.1002 116.934 24.2002 83.1792 34.9002 51.0182C43.6002 24.7969 59.2001 -5.04617 78.8001 1.32807C91.4001 5.38441 99.5002 23.6379 103.2 41.6017C108.2 66.3743 107.5 92.8854 104.1 118.238C102.6 129.392 100.6 141.127 102.7 152.137C108 180.386 135.3 186.761 145.2 212.113C155.1 237.61 143.3 269.626 132.1 294.543C122.5 315.984 116.8 329.312 123 347.421C124.7 352.201 127 356.547 129.9 359.879C136 367.413 147.2 390.302 109.5 431.734Z" fill="#F3AF47"/>
<path d="M72.1 74.3421C72.1 83.1792 66 572.547 66 572.547L90.0001 571.244L72.1 74.3421Z" fill="#7C4A0F"/>
<path d="M73.6001 417.682L24.0001 340.901L77.9001 411.163C78.8001 412.177 79.2001 413.916 79.0001 415.509C78.8001 417.103 78.0001 418.406 76.9001 418.986C75.8001 419.565 74.6001 419.131 73.8001 417.972L73.6001 417.682ZM69.1001 197.481L49.0001 140.982L73.1001 194.294C73.9001 195.308 74.2001 196.901 73.8001 198.205C73.4001 199.654 72.4001 200.523 71.4001 200.378C70.3001 200.233 69.5001 199.219 69.2001 197.626L69.1001 197.481ZM74.6001 315.26L125 211.968L79.5001 320.04C78.6001 322.068 76.8001 322.793 75.4001 321.489C74.0001 320.185 73.6001 317.578 74.4001 315.549L74.6001 315.26Z" fill="#7C4A0F"/>
</svg>
